<?xml version="1.0" encoding="UTF-8" standalone="no"?>
<!-- Created with Inkscape (http://www.inkscape.org/) -->

<svg
   xmlns:dc="http://purl.org/dc/elements/1.1/"
   xmlns:cc="http://creativecommons.org/ns#"
   xmlns:rdf="http://www.w3.org/1999/02/22-rdf-syntax-ns#"
   xmlns:svg="http://www.w3.org/2000/svg"
   xmlns="http://www.w3.org/2000/svg"
   xmlns:sodipodi="http://sodipodi.sourceforge.net/DTD/sodipodi-0.dtd"
   xmlns:inkscape="http://www.inkscape.org/namespaces/inkscape"
   width="28"
   height="28"
   viewBox="0 0 7.4083337 7.4083337"
   version="1.1"
   id="svg8"
   inkscape:version="0.92.2 (5c3e80d, 2017-08-06)"
   sodipodi:docname="0.svg">
  <defs
     id="defs2" />
  <sodipodi:namedview
     id="base"
     pagecolor="#ffffff"
     bordercolor="#666666"
     borderopacity="1.0"
     inkscape:pageopacity="0.0"
     inkscape:pageshadow="2"
     inkscape:zoom="22.4"
     inkscape:cx="2.9940394"
     inkscape:cy="13.528241"
     inkscape:document-units="mm"
     inkscape:current-layer="layer1"
     showgrid="false"
     units="px"
     inkscape:window-width="1853"
     inkscape:window-height="1025"
     inkscape:window-x="67"
     inkscape:window-y="27"
     inkscape:window-maximized="1" />
  <metadata
     id="metadata5">
    <rdf:RDF>
      <cc:Work
         rdf:about="">
        <dc:format>image/svg+xml</dc:format>
        <dc:type
           rdf:resource="http://purl.org/dc/dcmitype/StillImage" />
        <dc:title />
      </cc:Work>
    </rdf:RDF>
  </metadata>
  <g
     inkscape:label="Layer 1"
     inkscape:groupmode="layer"
     id="layer1"
     transform="translate(0,-289.59167)">
    <path
       style="fill:none;stroke:#000000;stroke-width:0.7;stroke-linecap:round;stroke-linejoin:miter;stroke-opacity:1;stroke-miterlimit:4;stroke-dasharray:none"
       d="m 3.7576893,291.86163 c -0.012831,-0.0299 -0.022886,-0.0612 -0.038497,-0.0899 -0.00769,-0.0142 -0.020708,-0.0249 -0.030797,-0.0375 -0.00788,-0.01 -0.016296,-0.0194 -0.023098,-0.03 -0.00608,-0.009 -0.0097,-0.0203 -0.0154,-0.03 -0.00459,-0.008 -0.010807,-0.0147 -0.0154,-0.0225 -0.0057,-0.01 -0.0097,-0.0203 -0.0154,-0.03 -0.00459,-0.008 -0.011261,-0.0144 -0.0154,-0.0225 -0.00363,-0.007 -0.00407,-0.0154 -0.0077,-0.0225 -0.013218,-0.0257 -0.030208,-0.0371 -0.053895,-0.0525 -0.0077,-0.005 -0.014592,-0.0114 -0.023098,-0.015 -0.02668,-0.0112 -0.047947,-0.007 -0.076993,-0.007 -0.086095,0 -0.048572,-0.005 -0.1462871,0.0225 -0.033509,0.01 -0.068004,0.0166 -0.1000888,0.03 -0.040102,0.0168 -0.077975,0.0383 -0.1154899,0.06 -0.105282,0.0608 -0.1790186,0.11182 -0.2694763,0.19484 -0.046233,0.0424 -0.088519,0.0888 -0.1308886,0.13488 -0.049412,0.0537 -0.2098464,0.24003 -0.2540777,0.29974 -0.041212,0.0556 -0.07814,0.11419 -0.1154898,0.17236 -0.039657,0.0617 -0.079045,0.12373 -0.1154899,0.18733 -0.069364,0.12106 -0.1552464,0.29157 -0.2078818,0.41964 -0.073133,0.17795 -0.1015927,0.27901 -0.1462871,0.46461 -0.019756,0.082 -0.039869,0.16413 -0.053895,0.24729 -0.030648,0.18168 -0.038497,0.32576 -0.038497,0.50956 0,0.17215 0.00488,0.28277 0.038497,0.44961 0.011738,0.0582 0.024922,0.11671 0.046196,0.17235 0.041305,0.10804 0.095523,0.18756 0.1770845,0.26978 0.063009,0.0635 0.1616833,0.13355 0.238679,0.17984 0.061733,0.0371 0.199357,0.10835 0.2694764,0.13488 0.1017504,0.0385 0.1928304,0.0575 0.3002737,0.0749 0.056209,0.009 0.1125329,0.0187 0.1693851,0.0225 0.094626,0.006 0.2537653,-0.002 0.3464696,-0.015 0.064747,-0.009 0.1288581,-0.0226 0.1924832,-0.0375 0.1986959,-0.0464 0.3939292,-0.11484 0.5774493,-0.20233 0.062909,-0.03 0.1229383,-0.0654 0.1847838,-0.0974 0.1220041,-0.0632 0.2219404,-0.10878 0.3387702,-0.17984 0.087729,-0.0534 0.1829614,-0.12087 0.261777,-0.18735 0.039794,-0.0336 0.07956,-0.0674 0.1154899,-0.1049 0.036101,-0.0376 0.067348,-0.0795 0.1000912,-0.1199 0.078601,-0.0971 0.141372,-0.1777 0.2078819,-0.28476 0.033277,-0.0536 0.062642,-0.10936 0.092392,-0.16486 0.054251,-0.1012 0.1274881,-0.24426 0.1693852,-0.3522 0.053324,-0.13737 0.060702,-0.18628 0.084693,-0.32972 0.00875,-0.0523 0.019309,-0.1045 0.023098,-0.15736 0.00527,-0.0734 -0.00235,-0.24752 -0.0077,-0.32222 -0.00394,-0.0551 -0.011628,-0.1098 -0.0154,-0.16486 -6.38e-4,-0.009 -0.0154,-0.34752 -0.0154,-0.3522 0,-0.06 0.00641,-0.11986 0.0077,-0.17984 0.00128,-0.06 0,-0.1199 0,-0.17985 0,-0.0549 0.00131,-0.10992 0,-0.16486 -0.00126,-0.0525 -8.474e-4,-0.10528 -0.0077,-0.15736 -0.010378,-0.0788 -0.038992,-0.17579 -0.076992,-0.24729 -0.039459,-0.0743 -0.090296,-0.13255 -0.1462871,-0.19483 -0.027511,-0.0306 -0.053251,-0.0631 -0.084693,-0.0899 -0.030538,-0.026 -0.066535,-0.0452 -0.1000912,-0.0674 -0.030608,-0.0202 -0.059286,-0.0438 -0.092392,-0.06 -0.072054,-0.0351 -0.1586832,-0.0525 -0.2386791,-0.0525 -0.1261624,0 -0.2586525,0.032 -0.3772669,0.0674 -0.088473,0.0264 -0.1762886,0.0555 -0.2617771,0.0899 -0.1668788,0.0673 -0.406932,0.19099 -0.5620507,0.27727 -0.1505361,0.0837 -0.3236752,0.18756 -0.4619594,0.29225 -0.073177,0.0554 -0.1801165,0.14504 -0.2232804,0.2323 -0.013545,0.0274 -0.010266,0.06 -0.015398,0.0899"
       id="path843"
       inkscape:connector-curvature="0" />
  </g>
</svg>
