<?xml version="1.0" encoding="UTF-8" standalone="no"?>
<!-- Created with Inkscape (http://www.inkscape.org/) -->

<svg
   xmlns:dc="http://purl.org/dc/elements/1.1/"
   xmlns:cc="http://creativecommons.org/ns#"
   xmlns:rdf="http://www.w3.org/1999/02/22-rdf-syntax-ns#"
   xmlns:svg="http://www.w3.org/2000/svg"
   xmlns="http://www.w3.org/2000/svg"
   xmlns:sodipodi="http://sodipodi.sourceforge.net/DTD/sodipodi-0.dtd"
   xmlns:inkscape="http://www.inkscape.org/namespaces/inkscape"
   width="28"
   height="28"
   viewBox="0 0 7.4083337 7.4083337"
   version="1.1"
   id="svg8"
   inkscape:version="0.92.2 (5c3e80d, 2017-08-06)"
   sodipodi:docname="1.svg">
  <defs
     id="defs2" />
  <sodipodi:namedview
     id="base"
     pagecolor="#ffffff"
     bordercolor="#666666"
     borderopacity="1.0"
     inkscape:pageopacity="0.0"
     inkscape:pageshadow="2"
     inkscape:zoom="22.4"
     inkscape:cx="2.9940394"
     inkscape:cy="13.528241"
     inkscape:document-units="mm"
     inkscape:current-layer="layer1"
     showgrid="false"
     units="px"
     inkscape:window-width="1853"
     inkscape:window-height="1025"
     inkscape:window-x="67"
     inkscape:window-y="27"
     inkscape:window-maximized="1" />
  <metadata
     id="metadata5">
    <rdf:RDF>
      <cc:Work
         rdf:about="">
        <dc:format>image/svg+xml</dc:format>
        <dc:type
           rdf:resource="http://purl.org/dc/dcmitype/StillImage" />
        <dc:title></dc:title>
      </cc:Work>
    </rdf:RDF>
  </metadata>
  <g
     inkscape:label="Layer 1"
     inkscape:groupmode="layer"
     id="layer1"
     transform="translate(0,-289.59167)">
    <path
       style="fill:none;stroke:#000000;stroke-width:0.7;stroke-linecap:round;stroke-linejoin:miter;stroke-opacity:1;stroke-miterlimit:4;stroke-dasharray:none"
       d="m 3.1891741,291.59919 c 0.1704578,-0.10181 -0.026723,0.0122 0.141741,-0.0741 0.174048,-0.0891 0.011229,-0.0199 0.2126118,-0.10581 0.042952,-0.0184 0.087787,-0.0331 0.1299292,-0.053 0.040674,-0.0191 0.078745,-0.0423 0.1181177,-0.0635 0.039372,-0.0211 0.079296,-0.0416 0.1181174,-0.0635 0.099827,-0.0565 0.1148455,-0.0657 0.2007999,-0.13757 0.028494,-0.0238 0.058333,-0.0468 0.082682,-0.0741 0.023204,-0.026 0.038455,-0.057 0.059059,-0.0847 0.018788,-0.0253 0.041308,-0.0482 0.059059,-0.0741 0.027685,-0.0403 0.045576,-0.0855 0.070871,-0.12698 0.010993,-0.0181 0.026909,-0.0338 0.035435,-0.053 0.00746,-0.0167 0.00746,-0.0354 0.011811,-0.0529 0.00303,-0.0122 0.015732,-0.0599 0.023625,-0.0741 0.00177,-0.004 0,0.007 0,0.0106 0,0.0444 -0.00249,-0.004 0.011811,0.0529 0.00796,0.0321 0.023625,0.13581 0.023625,0.15873 0,0.0496 -0.00536,0.099 -0.011811,0.14815 -0.025678,0.19553 -0.05625,0.30613 -0.1063056,0.50793 -0.030665,0.12362 -0.06063,0.24741 -0.094494,0.37036 -0.1339681,0.48639 -0.1371706,0.4256 -0.2598587,0.9312 -0.039203,0.16156 -0.074004,0.32399 -0.1063058,0.48677 -0.128759,0.64886 -0.031672,0.26885 -0.1653646,0.86771 -0.025294,0.1133 -0.0558,0.22562 -0.082682,0.33862 -0.024302,0.10216 -0.047176,0.20459 -0.07087,0.30687 -0.019616,0.0847 -0.039285,0.16932 -0.059059,0.25397 -0.015661,0.067 -0.036124,0.13329 -0.047247,0.20105 -0.00861,0.0525 -0.00727,0.10585 -0.011811,0.15873 -0.00334,0.0389 -0.0094,0.0775 -0.011811,0.1164 -0.00153,0.0246 0,0.0494 0,0.0741 0,0.0177 0.00243,0.0354 0,0.0529 -0.00153,0.011 -0.00937,0.0208 -0.011811,0.0317 -0.00153,0.007 0.0019,0.0143 0,0.0211 0.00712,0.0192 -0.019135,0.0197 -0.023625,0.0317 -0.00249,0.006 0.00191,0.0143 0,0.0212 -0.00214,0.008 -0.00968,0.0135 -0.011811,0.0211 -0.0019,0.007 0.00153,0.0142 0,0.0211 -0.00243,0.0109 -0.00977,0.0207 -0.011811,0.0317 -0.00193,0.0105 0,0.0211 0,0.0317 0,0.0106 0,0.0211 0,0.0317 0,0.004 -0.00124,-0.007 0,-0.0106 0.00278,-0.007 0.00787,-0.0142 0.011811,-0.0211"
       id="path4608"
       inkscape:connector-curvature="0" />
    <path
       style="fill:none;stroke:#000000;stroke-width:0.7;stroke-linecap:round;stroke-linejoin:miter;stroke-miterlimit:4;stroke-dasharray:none;stroke-opacity:1"
       d="m 2.4612602,296.16137 c 0.030212,-0.008 0.060541,-0.0151 0.090636,-0.0236 0.1502468,-0.0423 0.2417829,-0.0762 0.4028243,-0.1063 0.234401,-0.0439 0.4694093,-0.0836 0.7049427,-0.11812 0.06005,-0.009 0.1208651,-0.008 0.1812712,-0.0118 0.1853473,-0.0132 0.1744071,-0.0172 0.3927536,-0.0236 0.070473,-0.002 0.1409886,0 0.2114828,0 h 0.090636 0.020143"
       id="path4614"
       inkscape:connector-curvature="0"
       sodipodi:nodetypes="ccccccscc" />
  </g>
</svg>
