<?xml version="1.0" encoding="UTF-8" standalone="no"?>
<!-- Created with Inkscape (http://www.inkscape.org/) -->

<svg
   xmlns:dc="http://purl.org/dc/elements/1.1/"
   xmlns:cc="http://creativecommons.org/ns#"
   xmlns:rdf="http://www.w3.org/1999/02/22-rdf-syntax-ns#"
   xmlns:svg="http://www.w3.org/2000/svg"
   xmlns="http://www.w3.org/2000/svg"
   xmlns:sodipodi="http://sodipodi.sourceforge.net/DTD/sodipodi-0.dtd"
   xmlns:inkscape="http://www.inkscape.org/namespaces/inkscape"
   width="28"
   height="28"
   viewBox="0 0 7.4083337 7.4083337"
   version="1.1"
   id="svg8"
   inkscape:version="0.92.2 (5c3e80d, 2017-08-06)"
   sodipodi:docname="2.svg">
  <defs
     id="defs2" />
  <sodipodi:namedview
     id="base"
     pagecolor="#ffffff"
     bordercolor="#666666"
     borderopacity="1.0"
     inkscape:pageopacity="0.0"
     inkscape:pageshadow="2"
     inkscape:zoom="22.4"
     inkscape:cx="2.9940394"
     inkscape:cy="13.528241"
     inkscape:document-units="mm"
     inkscape:current-layer="layer1"
     showgrid="false"
     units="px"
     inkscape:window-width="1853"
     inkscape:window-height="1025"
     inkscape:window-x="67"
     inkscape:window-y="27"
     inkscape:window-maximized="1" />
  <metadata
     id="metadata5">
    <rdf:RDF>
      <cc:Work
         rdf:about="">
        <dc:format>image/svg+xml</dc:format>
        <dc:type
           rdf:resource="http://purl.org/dc/dcmitype/StillImage" />
        <dc:title></dc:title>
      </cc:Work>
    </rdf:RDF>
  </metadata>
  <g
     inkscape:label="Layer 1"
     inkscape:groupmode="layer"
     id="layer1"
     transform="translate(0,-289.59167)">
    <path
       style="fill:none;stroke:#000000;stroke-width:0.69999999;stroke-linecap:round;stroke-linejoin:miter;stroke-miterlimit:4;stroke-dasharray:none;stroke-opacity:1"
       d="m 2.1490746,291.94622 c 0.019912,-0.0171 0.041047,-0.032 0.059734,-0.0512 0.044758,-0.046 0.046294,-0.0722 0.089601,-0.12795 0.024944,-0.0321 0.053193,-0.0596 0.079645,-0.0896 0.029964,-0.0341 0.05982,-0.0681 0.0896,-0.10237 0.033273,-0.0383 0.065002,-0.0789 0.099556,-0.11515 0.038526,-0.0405 0.08109,-0.0745 0.1194675,-0.11516 0.2516704,-0.27906 0.1133078,-0.1497 0.5276478,-0.51181 0.057876,-0.0428 0.1179026,-0.081 0.179201,-0.11515 0.1254421,-0.0698 0.2633799,-0.12465 0.3982248,-0.15353 0.069052,-0.0148 0.1391425,-0.0213 0.209068,-0.0256 0.069611,-0.004 0.1395645,-0.007 0.209068,0 0.066935,0.007 0.1331095,0.0228 0.1991123,0.0384 0.129159,0.0305 0.2120858,0.0531 0.3285354,0.12796 0.045308,0.0291 0.091198,0.0596 0.129423,0.10236 0.083136,0.0929 0.1323007,0.2149 0.1692456,0.34547 0.050505,0.1785 0.066506,0.31957 0.069689,0.5118 0.00362,0.21845 -0.017798,0.46515 -0.049778,0.67814 -0.018759,0.12493 -0.039393,0.24992 -0.069689,0.37106 -0.06143,0.24562 -0.1491777,0.47037 -0.2688017,0.67813 -0.2129382,0.36984 -0.5085712,0.65619 -0.7964492,0.92125 -0.114485,0.1054 -0.2297674,0.20963 -0.3484466,0.30708 -0.1093273,0.0898 -0.6108571,0.46256 -0.7267602,0.55019 -0.2333822,0.17645 -0.3703798,0.28995 -0.6072927,0.44783 -0.081696,0.0545 -0.1651756,0.10442 -0.2488905,0.15354 -0.1457677,0.0856 -0.2175187,0.13291 -0.3683578,0.16633 -0.056098,0.0125 -0.1606039,0.0273 -0.2190236,-0.0128 -0.060206,-0.0413 -0.076618,-0.11021 -0.079645,-0.19191 -0.0019,-0.0513 -0.0014,-0.10432 0.00996,-0.15356 0.031873,-0.13823 0.1163344,-0.29368 0.1891567,-0.39663 0.055269,-0.0781 0.113846,-0.15352 0.1792012,-0.21752 0.130543,-0.12783 0.3667359,-0.28713 0.5176921,-0.35826 0.1035706,-0.0489 0.2112835,-0.0822 0.3185798,-0.11516 0.1152095,-0.0353 0.2311237,-0.0687 0.3484466,-0.0896 0.2530432,-0.0451 0.4822665,-0.0487 0.7367158,-0.0256 0.1133277,0.01 0.226889,0.0238 0.3384909,0.0512 0.1900337,0.0465 0.3586777,0.12419 0.5276478,0.24311 0.062967,0.0444 0.1211411,0.0992 0.1792011,0.15354 0.1490787,0.13934 0.2787404,0.30883 0.4280916,0.44783 0.1498369,0.13944 0.3130054,0.25373 0.4878253,0.33267 0.065375,0.0294 0.1315092,0.0572 0.1991123,0.0768 0.065476,0.0189 0.1325439,0.0274 0.1991123,0.0384 0.1335767,0.022 0.2255037,0.0404 0.3584023,0.0128 0.047702,-0.01 0.092919,-0.0342 0.1393786,-0.0511"
       id="path4562"
       inkscape:connector-curvature="0"
       sodipodi:nodetypes="cccccccccccccccccccccccccccccccccccccccccccc" />
  </g>
</svg>
