<?xml version="1.0" encoding="UTF-8" standalone="no"?>
<!-- Created with Inkscape (http://www.inkscape.org/) -->

<svg
   xmlns:dc="http://purl.org/dc/elements/1.1/"
   xmlns:cc="http://creativecommons.org/ns#"
   xmlns:rdf="http://www.w3.org/1999/02/22-rdf-syntax-ns#"
   xmlns:svg="http://www.w3.org/2000/svg"
   xmlns="http://www.w3.org/2000/svg"
   xmlns:sodipodi="http://sodipodi.sourceforge.net/DTD/sodipodi-0.dtd"
   xmlns:inkscape="http://www.inkscape.org/namespaces/inkscape"
   width="28"
   height="28"
   viewBox="0 0 7.4083337 7.4083337"
   version="1.1"
   id="svg8"
   inkscape:version="0.92.2 (5c3e80d, 2017-08-06)"
   sodipodi:docname="3.svg">
  <defs
     id="defs2" />
  <sodipodi:namedview
     id="base"
     pagecolor="#ffffff"
     bordercolor="#666666"
     borderopacity="1.0"
     inkscape:pageopacity="0.0"
     inkscape:pageshadow="2"
     inkscape:zoom="22.4"
     inkscape:cx="2.9940394"
     inkscape:cy="13.528241"
     inkscape:document-units="mm"
     inkscape:current-layer="layer1"
     showgrid="false"
     units="px"
     inkscape:window-width="1853"
     inkscape:window-height="1025"
     inkscape:window-x="67"
     inkscape:window-y="27"
     inkscape:window-maximized="1" />
  <metadata
     id="metadata5">
    <rdf:RDF>
      <cc:Work
         rdf:about="">
        <dc:format>image/svg+xml</dc:format>
        <dc:type
           rdf:resource="http://purl.org/dc/dcmitype/StillImage" />
        <dc:title></dc:title>
      </cc:Work>
    </rdf:RDF>
  </metadata>
  <g
     inkscape:label="Layer 1"
     inkscape:groupmode="layer"
     id="layer1"
     transform="translate(0,-289.59167)">
    <path
       style="fill:none;stroke:#000000;stroke-width:0.7;stroke-linecap:round;stroke-linejoin:miter;stroke-miterlimit:4;stroke-dasharray:none;stroke-opacity:1"
       d="m 1.7331054,291.4908 c 0.029583,-0.011 0.06049,-0.019 0.088749,-0.0329 0.038571,-0.0191 0.073394,-0.0449 0.1109362,-0.0659 0.047531,-0.0266 0.095383,-0.0527 0.1442171,-0.0769 0.054748,-0.027 0.1116558,-0.0497 0.1664045,-0.0769 0.056227,-0.0278 0.1101771,-0.0601 0.1664043,-0.0879 0.06366,-0.0315 0.295383,-0.13795 0.3660896,-0.16471 0.065535,-0.0248 0.1333155,-0.0433 0.1996851,-0.0659 0.063061,-0.0214 0.1246362,-0.0472 0.1885918,-0.0659 0.061956,-0.018 0.1254165,-0.0307 0.1885914,-0.044 0.1868706,-0.0392 0.3747904,-0.0606 0.5657749,-0.0659 0.1098951,-0.003 0.3024934,-2.7e-4 0.4104642,0.011 0.070739,0.007 0.1408258,0.0202 0.2107788,0.0329 0.070612,0.0128 0.1417418,0.0244 0.2107788,0.0439 0.1191589,0.0336 0.2303663,0.0848 0.3328087,0.15373 0.043461,0.0293 0.086769,0.0602 0.1220301,0.0988 0.035781,0.0391 0.061876,0.0862 0.088749,0.13177 0.07025,0.1192 0.073678,0.13984 0.099843,0.27451 0.022701,0.11684 0.033528,0.17657 0.011093,0.29649 -0.00916,0.049 -0.027922,0.0957 -0.044374,0.14274 -0.046899,0.13412 -0.055237,0.16647 -0.1553108,0.27453 -0.1551755,0.16756 -0.3716248,0.29009 -0.5657749,0.40628 -0.080863,0.0484 -0.161547,0.0972 -0.2440598,0.14275 -0.1254014,0.0693 -0.3251036,0.16639 -0.4548385,0.2306 -0.059166,0.0293 -0.1175544,0.0602 -0.1774981,0.0879 -0.095859,0.0443 -0.2003961,0.084 -0.2995278,0.12079 -0.040527,0.0151 -0.080756,0.031 -0.1220298,0.0439 -0.1106142,0.0346 -0.058638,0.0117 -0.1553108,0.0329 -0.011416,0.003 -0.021937,0.008 -0.033281,0.011 -0.00359,8.9e-4 -0.011093,0.004 -0.011093,0 0,-0.0166 0.028949,-0.0103 0.033281,-0.011 0.018667,-0.003 0.036832,-0.008 0.055468,-0.011 0.057202,-0.008 0.187413,-0.0219 0.232966,-0.0219 0.066665,0 0.1332077,0.007 0.1996851,0.011 0.2315246,0.0172 0.2936099,0.0258 0.5324942,0.0659 0.2960493,0.0497 0.3178732,0.0534 0.6101493,0.14276 0.094994,0.0291 0.4661753,0.1518 0.5657747,0.19765 0.1185513,0.0546 0.2738869,0.15827 0.3771834,0.24158 0.046667,0.0376 0.094785,0.0748 0.1331234,0.12078 0.032718,0.0392 0.055425,0.0859 0.077655,0.13178 0.040904,0.0843 0.073827,0.17977 0.077655,0.27452 0.00325,0.0803 -0.013237,0.20286 -0.055468,0.27451 -0.029105,0.0494 -0.071757,0.0898 -0.1109364,0.13177 -0.1542921,0.16545 -0.1798177,0.18187 -0.3882768,0.30747 -0.090507,0.0546 -0.1836553,0.10474 -0.2773405,0.15373 -0.102356,0.0536 -0.2052994,0.10618 -0.3106215,0.15373 -0.1972635,0.0891 -0.4458812,0.18307 -0.6545239,0.24158 -0.2078008,0.0583 -0.4630291,0.10448 -0.676711,0.13177 -0.218312,0.0279 -0.4560684,0.048 -0.6767113,0.0329 -0.1043437,-0.007 -0.2079116,-0.0244 -0.3106215,-0.044 -0.1649343,-0.0314 -0.3423933,-0.0766 -0.4881192,-0.1647 -0.1051723,-0.0636 -0.236994,-0.18725 -0.299528,-0.29649 -0.031153,-0.0544 -0.053058,-0.11458 -0.066561,-0.17569 -0.02244,-0.10154 -0.011513,-0.23971 0.011094,-0.3404 0.01653,-0.0736 0.050541,-0.15344 0.088749,-0.21962 0.01323,-0.023 0.030058,-0.0436 0.044374,-0.0659 0.011577,-0.018 0.022188,-0.0366 0.033281,-0.0549"
       id="path4535"
       inkscape:connector-curvature="0" />
  </g>
</svg>
