<?xml version="1.0" encoding="UTF-8" standalone="no"?>
<!-- Created with Inkscape (http://www.inkscape.org/) -->

<svg
   xmlns:dc="http://purl.org/dc/elements/1.1/"
   xmlns:cc="http://creativecommons.org/ns#"
   xmlns:rdf="http://www.w3.org/1999/02/22-rdf-syntax-ns#"
   xmlns:svg="http://www.w3.org/2000/svg"
   xmlns="http://www.w3.org/2000/svg"
   xmlns:sodipodi="http://sodipodi.sourceforge.net/DTD/sodipodi-0.dtd"
   xmlns:inkscape="http://www.inkscape.org/namespaces/inkscape"
   width="28"
   height="28"
   viewBox="0 0 7.4083337 7.4083337"
   version="1.1"
   id="svg8"
   inkscape:version="0.92.2 (5c3e80d, 2017-08-06)"
   sodipodi:docname="4.svg">
  <defs
     id="defs2" />
  <sodipodi:namedview
     id="base"
     pagecolor="#ffffff"
     bordercolor="#666666"
     borderopacity="1.0"
     inkscape:pageopacity="0.0"
     inkscape:pageshadow="2"
     inkscape:zoom="22.4"
     inkscape:cx="11.285436"
     inkscape:cy="16.123635"
     inkscape:document-units="mm"
     inkscape:current-layer="layer1"
     showgrid="false"
     units="px"
     inkscape:window-width="1853"
     inkscape:window-height="1025"
     inkscape:window-x="67"
     inkscape:window-y="27"
     inkscape:window-maximized="1"
     showguides="false" />
  <metadata
     id="metadata5">
    <rdf:RDF>
      <cc:Work
         rdf:about="">
        <dc:format>image/svg+xml</dc:format>
        <dc:type
           rdf:resource="http://purl.org/dc/dcmitype/StillImage" />
        <dc:title></dc:title>
      </cc:Work>
    </rdf:RDF>
  </metadata>
  <g
     inkscape:label="Layer 1"
     inkscape:groupmode="layer"
     id="layer1"
     transform="translate(0,-289.59167)">
    <path
       style="fill:none;stroke:#000000;stroke-width:0.7;stroke-linecap:round;stroke-linejoin:miter;stroke-opacity:1;stroke-miterlimit:4;stroke-dasharray:none"
       d="m 2.1740753,290.65714 c 0.00595,0.11726 -0.00266,0.14844 -0.020356,0.27167 -0.016022,0.11157 -0.050396,0.33302 -0.07124,0.43704 -0.018265,0.0912 -0.041115,0.18099 -0.061063,0.27167 -0.1182714,0.53763 -8.207e-4,0.027 -0.132303,0.57877 -0.020622,0.0865 -0.039333,0.17369 -0.061063,0.25986 -0.018987,0.0753 -0.042494,0.14899 -0.061062,0.22442 -0.015271,0.062 -0.057585,0.26964 -0.07124,0.34255 -0.012941,0.0691 -0.026164,0.14163 -0.030531,0.21261 -0.00146,0.0236 0,0.0472 0,0.0709 v 0.0591 c 0,0.004 -0.00339,0.0118 0,0.0118 0.00758,0 0.013311,-0.009 0.020355,-0.0118 0.00996,-0.005 0.020936,-0.006 0.030531,-0.0118 0.017692,-0.0103 0.033799,-0.0239 0.050886,-0.0354 0.023625,-0.016 0.047108,-0.0323 0.07124,-0.0472 0.068838,-0.0426 0.1158388,-0.0683 0.1933657,-0.0945 0.021577,-0.007 0.2576649,-0.0682 0.2747831,-0.0709 0.053907,-0.008 0.1084737,-0.01 0.1628341,-0.0118 0.1033545,-0.004 0.2748207,0 0.3765544,0.0118 0.071606,0.008 0.1427358,0.0217 0.21372,0.0354 0.1438661,0.0278 0.2863527,0.0634 0.4274401,0.10631 0.071673,0.0218 0.1420466,0.0491 0.21372,0.0709 0.070842,0.0215 0.1422746,0.0404 0.21372,0.0591 0.1173735,0.0306 0.2668455,0.0672 0.3867316,0.0827 0.057417,0.007 0.1153471,0.008 0.1730113,0.0118 0.054284,0.004 0.1084786,0.01 0.1628344,0.0118 0.092124,0.003 0.1929856,0.002 0.2849601,-0.0118 0.031362,-0.005 0.1548906,-0.0313 0.1933656,-0.0472 0.021431,-0.009 0.041085,-0.0228 0.061062,-0.0354 0.017367,-0.011 0.036102,-0.0202 0.050886,-0.0354 0.075981,-0.0784 0.1058006,-0.2454 0.1221256,-0.35435 0.024514,-0.16359 0.020462,-0.14946 0.030531,-0.31892 0.00721,-0.1214 0.014013,-0.24473 0.020356,-0.36616 0.0035,-0.0669 0.00495,-0.13403 0.010177,-0.2008 0.00495,-0.0632 0.013569,-0.12599 0.020356,-0.18899 0.019936,-0.18511 0.0391,-0.37034 0.061062,-0.55515 0.00656,-0.0552 0.014854,-0.11005 0.020355,-0.16536 0.00898,-0.0903 0.012155,-0.18128 0.020356,-0.27168 0.00286,-0.0316 0.00657,-0.063 0.010177,-0.0945 0.00317,-0.0276 0.00819,-0.0549 0.010177,-0.0827 0.00141,-0.0196 0,-0.0394 0,-0.0591 0,-0.0118 -0.00201,-0.0238 0,-0.0354 0.00148,-0.009 0.010177,-0.0148 0.010177,-0.0236 0,-0.004 -0.00714,-0.002 -0.010177,0 -0.00429,0.002 -0.00678,0.008 -0.010177,0.0118 -0.00339,0.004 -0.00771,0.007 -0.010177,0.0118 -0.013545,0.0262 -0.04566,0.11259 -0.05089,0.12993 -0.070037,0.23225 -0.097474,0.47732 -0.1221257,0.72052 -0.01554,0.1533 -0.027177,0.3071 -0.040709,0.46066 -0.017,0.19292 -0.036749,0.38554 -0.050886,0.57878 -0.023857,0.32612 -0.060893,1.01932 -0.07124,1.34654 -0.012851,0.40644 -0.010177,0.70045 -0.010177,1.09849 0,0.12599 -0.00187,0.252 0,0.37798 0.00679,0.45698 0.010931,0.15051 0.020356,0.55515 0.00146,0.063 -0.00201,0.12603 0,0.18899 0.0052,0.16303 0.023729,0.0827 0,0.16536"
       id="path996"
       inkscape:connector-curvature="0"
       sodipodi:nodetypes="cccccccccssscccccccccccccccccccccccccccccscsccccccccscccc" />
  </g>
</svg>
