<?xml version="1.0" encoding="UTF-8" standalone="no"?>
<!-- Created with Inkscape (http://www.inkscape.org/) -->

<svg
   xmlns:dc="http://purl.org/dc/elements/1.1/"
   xmlns:cc="http://creativecommons.org/ns#"
   xmlns:rdf="http://www.w3.org/1999/02/22-rdf-syntax-ns#"
   xmlns:svg="http://www.w3.org/2000/svg"
   xmlns="http://www.w3.org/2000/svg"
   xmlns:sodipodi="http://sodipodi.sourceforge.net/DTD/sodipodi-0.dtd"
   xmlns:inkscape="http://www.inkscape.org/namespaces/inkscape"
   width="28"
   height="28"
   viewBox="0 0 7.4083337 7.4083337"
   version="1.1"
   id="svg8"
   inkscape:version="0.92.2 (5c3e80d, 2017-08-06)"
   sodipodi:docname="5.svg">
  <defs
     id="defs2" />
  <sodipodi:namedview
     id="base"
     pagecolor="#ffffff"
     bordercolor="#666666"
     borderopacity="1.0"
     inkscape:pageopacity="0.0"
     inkscape:pageshadow="2"
     inkscape:zoom="22.4"
     inkscape:cx="4.2765074"
     inkscape:cy="16.123635"
     inkscape:document-units="mm"
     inkscape:current-layer="layer1"
     showgrid="false"
     units="px"
     inkscape:window-width="1853"
     inkscape:window-height="1025"
     inkscape:window-x="67"
     inkscape:window-y="27"
     inkscape:window-maximized="1"
     showguides="false" />
  <metadata
     id="metadata5">
    <rdf:RDF>
      <cc:Work
         rdf:about="">
        <dc:format>image/svg+xml</dc:format>
        <dc:type
           rdf:resource="http://purl.org/dc/dcmitype/StillImage" />
        <dc:title />
      </cc:Work>
    </rdf:RDF>
  </metadata>
  <g
     inkscape:label="Layer 1"
     inkscape:groupmode="layer"
     id="layer1"
     transform="translate(0,-289.59167)">
    <path
       style="fill:none;stroke:#000000;stroke-width:0.7;stroke-linecap:round;stroke-linejoin:miter;stroke-miterlimit:4;stroke-dasharray:none;stroke-opacity:1"
       d="m 5.6193666,291.11821 c -0.019645,0 -0.039558,0.004 -0.058938,0 -0.010828,-10e-4 -0.019271,-0.0124 -0.02947,-0.0163 -0.01442,-0.007 -0.029928,-0.009 -0.044202,-0.0162 -0.02019,-0.009 -0.037899,-0.0256 -0.058938,-0.0327 -0.028614,-0.009 -0.059042,-0.009 -0.088405,-0.0163 -0.04923,-0.009 -0.097716,-0.0251 -0.1473435,-0.0327 -0.048493,-0.007 -0.3698613,-0.0317 -0.3978269,-0.0327 -0.083454,-0.002 -0.16703,0.002 -0.2504839,0 -0.073799,-0.002 -0.1472237,-0.0138 -0.2210147,-0.0163 -0.06872,-0.002 -0.1375715,0.002 -0.2062807,0 -0.339107,-0.0314 -0.1962761,-0.0165 -0.5893737,-0.049 -0.039224,-0.002 -0.078659,0.002 -0.1178746,0 -0.039519,-0.002 -0.078355,-0.0138 -0.1178747,-0.0162 -0.039215,-0.002 -0.07866,0.002 -0.1178745,0 -0.039519,-0.002 -0.078355,-0.0138 -0.1178746,-0.0163 -0.039216,-0.002 -0.078671,0.002 -0.1178747,0 -0.034652,-0.002 -0.068499,-0.0138 -0.1031402,-0.0162 -0.034293,-0.002 -0.068879,0.002 -0.1031403,0 -0.2346035,-0.0217 0.085569,-0.0163 -0.1473421,-0.0163 -0.014733,0 -0.030225,-0.006 -0.044202,0 -0.00466,0.001 0,0.0108 0,0.0163 0,0.0162 0.00182,0.0328 0,0.049 -0.00732,0.065 -0.033487,0.15308 -0.044203,0.21252 -0.011713,0.065 -0.016033,0.13163 -0.02947,0.19618 -0.01608,0.0774 -0.03992,0.15238 -0.058938,0.22886 -0.078477,0.31563 -0.043806,0.17226 -0.1031403,0.49045 -0.014248,0.0763 -0.03351,0.15174 -0.044202,0.22887 -0.009,0.0649 -0.00913,0.13078 -0.014733,0.19617 -0.00421,0.0491 -0.012263,0.0978 -0.014733,0.14712 -0.00437,0.0871 0.00653,0.17469 0,0.26158 -0.00209,0.0277 -0.014734,0.054 -0.014734,0.0818 0,0.006 0.011264,0.003 0.014733,0 -0.00616,-0.0215 0.01997,-0.0331 0.029466,-0.0488 0.00914,-0.007 0.019931,-0.009 0.02947,-0.0163 0.053026,-0.0456 0.1210827,-0.0673 0.1768123,-0.098 0.1202984,-0.0549 0.2092669,-0.0961 0.3388893,-0.13078 0.2291872,-0.0613 0.2595629,-0.0505 0.5009674,-0.0652 0.2858463,-0.0176 0.2534981,-0.0263 0.5451704,0 0.1428441,0.0125 0.3592127,0.0412 0.5009674,0.0818 0.075193,0.0216 0.1487362,0.0503 0.2210151,0.0819 0.065452,0.0285 0.1301909,0.0599 0.1915464,0.0981 0.1069459,0.0665 0.2480781,0.18675 0.3388897,0.27792 0.051506,0.0517 0.096986,0.11037 0.1473436,0.16348 0.047905,0.0505 0.1006199,0.0953 0.1473431,0.14712 0.071426,0.0793 0.1756423,0.21613 0.2357495,0.31061 0.054643,0.0858 0.094778,0.15906 0.1178746,0.26157 0.014505,0.0643 0.022573,0.23627 0.014733,0.29425 -0.00761,0.0563 -0.02947,0.10907 -0.044203,0.16348 -0.014733,0.0545 -0.027265,0.10979 -0.044202,0.16348 -0.017477,0.0554 -0.034301,0.11159 -0.058938,0.16348 -0.056061,0.11819 -0.1297034,0.20743 -0.2210151,0.29427 -0.055936,0.0532 -0.1136383,0.10509 -0.176812,0.14712 -0.084755,0.0565 -0.1754746,0.10111 -0.2652181,0.14713 -0.2394959,0.12263 -0.406848,0.19502 -0.663045,0.27791 -0.1166422,0.0379 -0.2357495,0.0655 -0.3536241,0.0981 -0.1891578,0.0525 -0.3651888,0.11062 -0.5599046,0.13079 -0.1410301,0.0146 -0.2603144,-0.002 -0.3978271,-0.0327 -0.1975297,-0.0439 -0.1640562,-0.0467 -0.3536218,-0.13079 -0.063516,-0.0283 -0.1293585,-0.05 -0.1915463,-0.0819 -0.1368373,-0.0695 -0.1949224,-0.1265 -0.3241554,-0.21252 -0.2211184,-0.14721 -0.050404,-0.008 -0.2357495,-0.17983 -0.070991,-0.0656 -0.080297,-0.0533 -0.1178746,-0.14714 -0.00822,-0.0205 -0.014733,-0.0428 -0.014733,-0.0655 1.319e-4,-0.0586 0.03929,-0.10906 0.058936,-0.16359"
       id="path969"
       inkscape:connector-curvature="0"
       sodipodi:nodetypes="cccccccccccccccccccscscccccccccsccccccccccccccccccccccccccccccccc" />
  </g>
</svg>
