<?xml version="1.0" encoding="UTF-8" standalone="no"?>
<!-- Created with Inkscape (http://www.inkscape.org/) -->

<svg
   xmlns:dc="http://purl.org/dc/elements/1.1/"
   xmlns:cc="http://creativecommons.org/ns#"
   xmlns:rdf="http://www.w3.org/1999/02/22-rdf-syntax-ns#"
   xmlns:svg="http://www.w3.org/2000/svg"
   xmlns="http://www.w3.org/2000/svg"
   xmlns:sodipodi="http://sodipodi.sourceforge.net/DTD/sodipodi-0.dtd"
   xmlns:inkscape="http://www.inkscape.org/namespaces/inkscape"
   width="28"
   height="28"
   viewBox="0 0 7.4083337 7.4083337"
   version="1.1"
   id="svg8"
   inkscape:version="0.92.2 (5c3e80d, 2017-08-06)"
   sodipodi:docname="6.svg">
  <defs
     id="defs2" />
  <sodipodi:namedview
     id="base"
     pagecolor="#ffffff"
     bordercolor="#666666"
     borderopacity="1.0"
     inkscape:pageopacity="0.0"
     inkscape:pageshadow="2"
     inkscape:zoom="22.4"
     inkscape:cx="4.2765074"
     inkscape:cy="16.123635"
     inkscape:document-units="mm"
     inkscape:current-layer="layer1"
     showgrid="false"
     units="px"
     inkscape:window-width="1853"
     inkscape:window-height="1025"
     inkscape:window-x="67"
     inkscape:window-y="27"
     inkscape:window-maximized="1"
     showguides="false" />
  <metadata
     id="metadata5">
    <rdf:RDF>
      <cc:Work
         rdf:about="">
        <dc:format>image/svg+xml</dc:format>
        <dc:type
           rdf:resource="http://purl.org/dc/dcmitype/StillImage" />
        <dc:title />
      </cc:Work>
    </rdf:RDF>
  </metadata>
  <g
     inkscape:label="Layer 1"
     inkscape:groupmode="layer"
     id="layer1"
     transform="translate(0,-289.59167)">
    <path
       style="fill:none;stroke:#000000;stroke-width:0.7;stroke-linecap:round;stroke-linejoin:miter;stroke-miterlimit:4;stroke-dasharray:none;stroke-opacity:1"
       d="m 2.3995035,294.34913 c -0.044639,0.003 -0.087134,0.0222 -0.1317732,0.0259 -0.1623266,0.014 -0.027354,-0.0157 -0.1581272,0.0124 -0.017678,0.003 -0.034597,0.0124 -0.05271,0.0124 -0.00621,0 -0.015146,-0.009 -0.013174,-0.0124 0.00393,-0.0108 0.018593,-0.0164 0.026352,-0.0259 0.080276,-0.0986 -0.047817,0.0341 0.079063,-0.0907 0.102237,-0.10048 0.06609,-0.0714 0.1976592,-0.16836 0.047795,-0.0352 0.09372,-0.0733 0.1449503,-0.10356 0.058954,-0.0347 0.1229869,-0.0605 0.1844815,-0.0907 0.070279,-0.0347 0.1405578,-0.0691 0.2108368,-0.10356 0.070279,-0.0347 0.1374435,-0.076 0.2108364,-0.10357 0.076645,-0.0288 0.1584678,-0.0421 0.2371909,-0.0648 0.070638,-0.0205 0.1388082,-0.0498 0.2108364,-0.0648 0.073549,-0.0155 0.1491359,-0.0191 0.2240135,-0.0259 0.2015016,-0.0181 0.4047077,-0.0205 0.6061551,0 0.061787,0.007 0.1229886,0.0172 0.1844816,0.0259 0.061494,0.01 0.1234019,0.0155 0.184482,0.0259 0.1608343,0.0293 0.3189272,0.0744 0.461205,0.15539 0.041116,0.0233 0.083861,0.0459 0.1185947,0.0777 0.041235,0.0378 0.1246182,0.17019 0.1449502,0.22013 0.033502,0.0822 0.056439,0.20987 0.05271,0.29783 -0.00221,0.0524 -0.015004,0.10403 -0.026352,0.1554 -0.010634,0.048 -0.019804,0.0972 -0.039531,0.14248 -0.03054,0.07 -0.1321313,0.20756 -0.184482,0.259 -0.036191,0.0355 -0.285317,0.22432 -0.3162549,0.24605 -0.064436,0.0453 -0.13112,0.0873 -0.1976592,0.12946 -0.195652,0.12404 -0.2386633,0.14729 -0.4480273,0.25897 -0.1430965,0.0763 -0.2978415,0.15755 -0.4480273,0.22015 -0.069097,0.0288 -0.1411464,0.0501 -0.2108364,0.0777 -0.062117,0.0245 -0.1212594,0.0561 -0.184482,0.0777 -0.045557,0.0155 -0.2334901,0.0564 -0.2899003,0.0648 -0.1309354,0.0193 -0.2643818,0.0193 -0.3953182,0 -0.044299,-0.007 -0.087848,-0.0172 -0.1317732,-0.0259 -0.043923,-0.01 -0.089531,-0.0108 -0.1317732,-0.0259 -0.033395,-0.0109 -0.062452,-0.033 -0.092241,-0.0518 -0.082405,-0.0522 -0.1051416,-0.072 -0.1713045,-0.1425 -0.027468,-0.0293 -0.056122,-0.0578 -0.079064,-0.0907 -0.078511,-0.11225 -0.121466,-0.24583 -0.1581272,-0.37552 -0.00969,-0.0343 -0.019678,-0.0686 -0.026353,-0.10358 -0.00289,-0.0155 -0.026352,-0.21187 -0.026352,-0.22013 0,-0.0347 0.00904,-0.069 0.013174,-0.10357 0.00464,-0.0387 0.00727,-0.0778 0.013174,-0.11659 0.024249,-0.15888 0.06696,-0.31394 0.1185962,-0.46618 0.020651,-0.0609 0.041634,-0.12171 0.065887,-0.1813 0.086981,-0.21369 0.1966456,-0.41881 0.3294321,-0.60862 0.049769,-0.0712 0.1046776,-0.13861 0.1581271,-0.2072 0.047582,-0.0609 0.094237,-0.12279 0.1449503,-0.18129 0.019618,-0.0227 0.3162874,-0.33515 0.3294321,-0.34964 0.053942,-0.0594 0.1030164,-0.12295 0.1581272,-0.18129 0.059175,-0.0626 0.1219188,-0.12187 0.1844821,-0.18129 0.1284757,-0.12187 0.2581416,-0.23729 0.3953183,-0.34962 0.064831,-0.0531 0.3110281,-0.2435 0.3821407,-0.29785 0.056865,-0.0434 0.1150496,-0.0853 0.1713049,-0.12946 0.053577,-0.0422 0.1052299,-0.0865 0.1581271,-0.12947 0.048129,-0.0391 0.097703,-0.0765 0.1449503,-0.11658 0.04942,-0.0421 0.096415,-0.0865 0.1449502,-0.12946 0.039315,-0.0347 0.079063,-0.069 0.1185962,-0.10357 0.079063,-0.069 0.1608167,-0.1352 0.237191,-0.20718 0.012212,-0.0109 0.1286793,-0.14884 0.1449502,-0.16835 0.017807,-0.0214 0.037107,-0.0417 0.05271,-0.0648 0.021711,-0.0319 0.027818,-0.0561 0.039531,-0.0907 0.00439,-0.0124 0.00878,-0.0259 0.013174,-0.0387 0.00439,-0.0124 0.01046,-0.0255 0.013174,-0.0389 0.00348,-0.0168 -0.00555,-0.0353 0,-0.0518 0.00195,-0.007 0.00973,-0.009 0.013174,-0.0124 0.00544,-0.009 0.00878,-0.0172 0.013174,-0.0259"
       id="path936"
       inkscape:connector-curvature="0" />
  </g>
</svg>
