<?xml version="1.0" encoding="UTF-8" standalone="no"?>
<!-- Created with Inkscape (http://www.inkscape.org/) -->

<svg
   xmlns:dc="http://purl.org/dc/elements/1.1/"
   xmlns:cc="http://creativecommons.org/ns#"
   xmlns:rdf="http://www.w3.org/1999/02/22-rdf-syntax-ns#"
   xmlns:svg="http://www.w3.org/2000/svg"
   xmlns="http://www.w3.org/2000/svg"
   xmlns:sodipodi="http://sodipodi.sourceforge.net/DTD/sodipodi-0.dtd"
   xmlns:inkscape="http://www.inkscape.org/namespaces/inkscape"
   width="28"
   height="28"
   viewBox="0 0 7.4083337 7.4083337"
   version="1.1"
   id="svg8"
   inkscape:version="0.92.2 (5c3e80d, 2017-08-06)"
   sodipodi:docname="7.svg">
  <defs
     id="defs2" />
  <sodipodi:namedview
     id="base"
     pagecolor="#ffffff"
     bordercolor="#666666"
     borderopacity="1.0"
     inkscape:pageopacity="0.0"
     inkscape:pageshadow="2"
     inkscape:zoom="22.4"
     inkscape:cx="12.178634"
     inkscape:cy="15.511282"
     inkscape:document-units="mm"
     inkscape:current-layer="layer1"
     showgrid="false"
     units="px"
     inkscape:window-width="1853"
     inkscape:window-height="1025"
     inkscape:window-x="67"
     inkscape:window-y="27"
     inkscape:window-maximized="1"
     showguides="false" />
  <metadata
     id="metadata5">
    <rdf:RDF>
      <cc:Work
         rdf:about="">
        <dc:format>image/svg+xml</dc:format>
        <dc:type
           rdf:resource="http://purl.org/dc/dcmitype/StillImage" />
        <dc:title />
      </cc:Work>
    </rdf:RDF>
  </metadata>
  <g
     inkscape:label="Layer 1"
     inkscape:groupmode="layer"
     id="layer1"
     transform="translate(0,-289.59167)">
    <path
       style="fill:none;stroke:#000000;stroke-width:0.7;stroke-linecap:round;stroke-linejoin:miter;stroke-opacity:1;stroke-miterlimit:4;stroke-dasharray:none"
       d="m 1.6536459,290.73977 c 0.036856,0.009 0.046911,0.0158 0.082682,0.0118 0.023802,-0.003 0.046982,-0.0101 0.070871,-0.0118 0.066763,-0.005 0.1339424,0.003 0.2007997,0 0.1891718,-0.009 0.1033566,-0.0171 0.3071059,-0.0236 0.066898,-0.002 0.1339641,0.004 0.2007997,0 0.079023,-0.004 0.1572985,-0.018 0.2362351,-0.0236 0.086489,-0.006 0.1732391,-0.008 0.2598586,-0.0118 0.08662,-0.004 0.1732391,-0.008 0.2598587,-0.0118 0.08662,-0.004 0.1731722,-0.01 0.2598587,-0.0118 0.086597,-0.002 0.1732613,0.002 0.2598586,0 0.086686,-0.002 0.1732391,-0.008 0.2598587,-0.0118 0.2480696,-0.0113 0.4961559,-0.0224 0.7441406,-0.0354 0.070882,-0.004 0.1416624,-0.01 0.2126115,-0.0118 0.1615022,-0.005 0.1825768,-0.002 0.3307292,0.0118 0.07555,0.007 0.1315677,0.007 0.2007999,0.0354 0.021193,0.009 0.043806,0.0183 0.059059,0.0354 0.017547,0.0197 0.030255,0.045 0.035435,0.0709 0.017029,0.0851 -0.017814,0.19921 -0.047247,0.27167 -0.061004,0.15016 -0.1891527,0.35534 -0.2716704,0.48428 -0.3357756,0.52465 -0.7254949,1.01196 -1.063058,1.53553 -0.097699,0.15153 -0.1925093,0.30499 -0.283482,0.46066 -0.1687454,0.28874 -0.3096985,0.56491 -0.4606586,0.86225 -0.059782,0.11776 -0.1206434,0.23501 -0.1771764,0.35436 -0.1951606,0.43911 -0.080632,0.1894 -0.2716702,0.59058 -0.027758,0.0583 -0.1474092,0.31554 -0.1889882,0.38979 -0.025082,0.0448 -0.054207,0.0872 -0.082682,0.12993"
       id="path881"
       inkscape:connector-curvature="0"
       sodipodi:nodetypes="ccccccccccccccccccccccccccc" />
    <path
       style="fill:none;stroke:#000000;stroke-width:0.7;stroke-linecap:round;stroke-linejoin:miter;stroke-opacity:1;stroke-miterlimit:4;stroke-dasharray:none"
       d="m 2.5796474,293.27827 c 0.1132286,0 0.2264571,0 0.3396857,0 0.056614,0 0.1132447,0.002 0.1698427,0 0.062322,-0.002 0.1245486,-0.008 0.1868271,-0.0121 0.065103,-0.004 0.1302129,-0.008 0.1953194,-0.0121 0.065107,-0.004 0.1301666,-0.0102 0.1953192,-0.0121 0.1685613,-0.005 0.2222869,0.001 0.3906385,0.0121 0.059451,0.004 0.1189813,0.006 0.1783347,0.0121 0.1825137,0.0191 0.1581418,0.0255 0.3396855,0.0605 0.048019,0.009 0.096245,0.0161 0.1443665,0.0242 0.04812,0.008 0.096138,0.0175 0.1443665,0.0242 0.039543,0.005 0.079277,0.008 0.1188903,0.0121 0.033985,0.004 0.067855,0.0102 0.1019057,0.0121 0.110357,0.007 0.040276,-7.6e-4 0.1358742,-0.0121 0.014105,-0.002 0.028449,0.003 0.042461,0 0.01627,-0.003 0.020526,-0.0242 0.042461,-0.0242"
       id="path897"
       inkscape:connector-curvature="0" />
  </g>
</svg>
