<?xml version="1.0" encoding="UTF-8" standalone="no"?>
<!-- Created with Inkscape (http://www.inkscape.org/) -->

<svg
   xmlns:dc="http://purl.org/dc/elements/1.1/"
   xmlns:cc="http://creativecommons.org/ns#"
   xmlns:rdf="http://www.w3.org/1999/02/22-rdf-syntax-ns#"
   xmlns:svg="http://www.w3.org/2000/svg"
   xmlns="http://www.w3.org/2000/svg"
   xmlns:sodipodi="http://sodipodi.sourceforge.net/DTD/sodipodi-0.dtd"
   xmlns:inkscape="http://www.inkscape.org/namespaces/inkscape"
   width="28"
   height="28"
   viewBox="0 0 7.4083337 7.4083337"
   version="1.1"
   id="svg8"
   inkscape:version="0.92.2 (5c3e80d, 2017-08-06)"
   sodipodi:docname="8.svg">
  <defs
     id="defs2" />
  <sodipodi:namedview
     id="base"
     pagecolor="#ffffff"
     bordercolor="#666666"
     borderopacity="1.0"
     inkscape:pageopacity="0.0"
     inkscape:pageshadow="2"
     inkscape:zoom="22.4"
     inkscape:cx="-6.5726185"
     inkscape:cy="17.288234"
     inkscape:document-units="mm"
     inkscape:current-layer="layer1"
     showgrid="false"
     units="px"
     inkscape:window-width="1853"
     inkscape:window-height="1025"
     inkscape:window-x="67"
     inkscape:window-y="27"
     inkscape:window-maximized="1"
     showguides="false" />
  <metadata
     id="metadata5">
    <rdf:RDF>
      <cc:Work
         rdf:about="">
        <dc:format>image/svg+xml</dc:format>
        <dc:type
           rdf:resource="http://purl.org/dc/dcmitype/StillImage" />
        <dc:title />
      </cc:Work>
    </rdf:RDF>
  </metadata>
  <g
     inkscape:label="Layer 1"
     inkscape:groupmode="layer"
     id="layer1"
     transform="translate(0,-289.59167)">
    <path
       style="fill:none;stroke:#000000;stroke-width:0.7;stroke-linecap:round;stroke-linejoin:miter;stroke-opacity:1;stroke-miterlimit:4;stroke-dasharray:none"
       d="m 2.2344728,291.88301 c 0.029165,0.0312 0.054137,0.0678 0.087493,0.0938 0.021169,0.0166 0.049931,0.0179 0.07291,0.0312 0.030771,0.018 0.058328,0.0417 0.087491,0.0624 0.038886,0.0156 0.079079,0.0279 0.1166562,0.0468 0.093204,0.047 0.1778434,0.10987 0.2624765,0.17198 0.1183253,0.0868 0.181836,0.13362 0.2916406,0.23454 0.054863,0.0504 0.1057145,0.10576 0.1604023,0.15635 0.052284,0.0484 0.1071417,0.0936 0.1604024,0.14071 0.058536,0.0519 0.1156957,0.1055 0.1749842,0.15636 0.341503,0.29294 0.033396,0.0251 0.3937149,0.29708 0.065196,0.0492 0.1255061,0.1055 0.1895665,0.15634 0.2529884,0.20095 0.1586368,0.10538 0.3937148,0.32835 0.064409,0.061 0.1300126,0.12112 0.1895664,0.18763 0.091821,0.10258 0.2255813,0.29274 0.3062227,0.40652 0.1355154,0.19118 0.1214289,0.16582 0.2333125,0.35961 0.029837,0.0516 0.062142,0.10193 0.087491,0.15634 0.033437,0.0718 0.085681,0.23363 0.1020738,0.31272 0.00851,0.041 0.00972,0.0834 0.014581,0.12509 0.00486,0.0417 0.014581,0.083 0.014581,0.12509 0,0.042 -0.00903,0.0835 -0.014581,0.12509 -0.00908,0.0682 -0.015415,0.17266 -0.07291,0.2189 -0.020941,0.0168 -0.047892,0.0231 -0.07291,0.0312 -0.1188203,0.0392 -0.1436049,0.0354 -0.2770586,0.0468 -0.255866,0.022 -0.1731141,0.0156 -0.452043,0.0156 -0.082631,0 -0.1652631,0 -0.2478945,0 -0.082631,0 -0.1654143,0.005 -0.2478945,0 -0.078232,-0.005 -0.155624,-0.0201 -0.2333126,-0.0312 -0.068138,-0.009 -0.1377716,-0.0119 -0.2041484,-0.0312 -0.061016,-0.0176 -0.1170351,-0.0511 -0.1749833,-0.0782 -0.053862,-0.0251 -0.1095749,-0.0466 -0.1604023,-0.0782 -0.080567,-0.0501 -0.156121,-0.13091 -0.2187304,-0.20326 -0.030493,-0.0353 -0.061446,-0.0703 -0.087491,-0.10946 -0.022777,-0.0342 -0.039887,-0.0724 -0.058328,-0.10948 -0.020458,-0.0412 -0.040903,-0.0823 -0.058328,-0.12508 -0.066045,-0.16187 -0.1040047,-0.35455 -0.087491,-0.53161 0.00493,-0.0528 0.015546,-0.10524 0.029163,-0.15636 0.040226,-0.15095 0.078537,-0.22501 0.1604022,-0.3596 0.1499982,-0.24661 0.3515839,-0.44561 0.5541171,-0.64106 0.3425152,-0.33053 -0.048432,0.0413 0.2916406,-0.26579 0.044771,-0.0404 0.085299,-0.0862 0.1312382,-0.1251 0.046569,-0.0395 0.099252,-0.0701 0.1458205,-0.10947 0.045939,-0.0389 0.085299,-0.0861 0.1312382,-0.12509 0.046569,-0.0395 0.099252,-0.0701 0.1458204,-0.10947 0.04594,-0.0389 0.085299,-0.0861 0.1312383,-0.12509 0.046569,-0.0395 0.099252,-0.0701 0.1458202,-0.10947 0.091879,-0.0779 0.1725481,-0.16981 0.2624766,-0.25017 0.2183926,-0.19512 0.051418,-0.0239 0.2187305,-0.20325 0.029163,-0.0312 0.062745,-0.0584 0.087491,-0.0939 0.019564,-0.0279 0.031206,-0.0615 0.043746,-0.0938 0.038711,-0.0997 0.049995,-0.20552 0.043746,-0.3127 -3.756e-4,-0.006 -0.025624,-0.25062 -0.029163,-0.26581 -0.019485,-0.0835 -0.059018,-0.16272 -0.1020739,-0.23453 -0.02261,-0.0377 -0.044655,-0.0763 -0.07291,-0.10948 -0.025652,-0.0301 -0.057402,-0.0534 -0.087493,-0.0782 -0.036144,-0.0298 -0.1798413,-0.1388 -0.2187304,-0.15635 -0.051078,-0.0231 -0.1069342,-0.0312 -0.1604023,-0.0468 -0.209734,-0.0613 -0.1127106,-0.0442 -0.3353867,-0.0624 -0.068022,-0.005 -0.1359256,-0.0156 -0.2041485,-0.0156 -0.068223,0 -0.1362642,0.008 -0.2041484,0.0156 -0.1912828,0.0205 -0.306566,0.0389 -0.4957892,0.0939 -0.093494,0.0272 -0.18518,0.061 -0.2770585,0.0938 -0.097711,0.035 -0.1960112,0.0684 -0.2916405,0.10948 -0.1387569,0.0596 -0.4401487,0.21193 -0.5686993,0.29706 -0.076923,0.051 -0.1486384,0.1108 -0.2187304,0.17199 -0.099634,0.0871 -0.235127,0.2242 -0.3062227,0.34398 -0.031532,0.0531 -0.052002,0.11317 -0.07291,0.17199 -0.018066,0.0509 -0.035831,0.10258 -0.043746,0.15636 -0.020542,0.13949 0.028575,0.26412 0.07291,0.39088"
       id="path860"
       inkscape:connector-curvature="0" />
  </g>
</svg>
