<?xml version="1.0" encoding="UTF-8" standalone="no"?>
<!-- Created with Inkscape (http://www.inkscape.org/) -->

<svg
   xmlns:dc="http://purl.org/dc/elements/1.1/"
   xmlns:cc="http://creativecommons.org/ns#"
   xmlns:rdf="http://www.w3.org/1999/02/22-rdf-syntax-ns#"
   xmlns:svg="http://www.w3.org/2000/svg"
   xmlns="http://www.w3.org/2000/svg"
   xmlns:sodipodi="http://sodipodi.sourceforge.net/DTD/sodipodi-0.dtd"
   xmlns:inkscape="http://www.inkscape.org/namespaces/inkscape"
   width="28"
   height="28"
   viewBox="0 0 7.4083332 7.4083335"
   version="1.1"
   id="svg8"
   inkscape:version="0.92.2 (5c3e80d, 2017-08-06)"
   sodipodi:docname="9.svg">
  <defs
     id="defs2" />
  <sodipodi:namedview
     id="base"
     pagecolor="#ffffff"
     bordercolor="#666666"
     borderopacity="1.0"
     inkscape:pageopacity="0.0"
     inkscape:pageshadow="2"
     inkscape:zoom="22.4"
     inkscape:cx="-1.6404432"
     inkscape:cy="17.67183"
     inkscape:document-units="mm"
     inkscape:current-layer="layer1"
     showgrid="false"
     units="px"
     showguides="true"
     inkscape:guide-bbox="true"
     inkscape:window-width="1853"
     inkscape:window-height="1025"
     inkscape:window-x="67"
     inkscape:window-y="27"
     inkscape:window-maximized="1">
    <sodipodi:guide
       position="2.4095982,1.0276228"
       orientation="0,1"
       id="guide10"
       inkscape:locked="false" />
    <sodipodi:guide
       position="4.0396205,0.72051713"
       orientation="0,1"
       id="guide30"
       inkscape:locked="false" />
  </sodipodi:namedview>
  <metadata
     id="metadata5">
    <rdf:RDF>
      <cc:Work
         rdf:about="">
        <dc:format>image/svg+xml</dc:format>
        <dc:type
           rdf:resource="http://purl.org/dc/dcmitype/StillImage" />
        <dc:title />
      </cc:Work>
    </rdf:RDF>
  </metadata>
  <g
     inkscape:label="Layer 1"
     inkscape:groupmode="layer"
     id="layer1"
     transform="translate(0,-289.59165)">
    <path
       style="fill:none;stroke:#000000;stroke-width:0.7;stroke-linecap:round;stroke-linejoin:miter;stroke-miterlimit:4;stroke-dasharray:none;stroke-opacity:1"
       d="m 4.9911035,291.51237 c 0.039925,-0.0115 0.079308,-0.009 0.1202988,-0.009 0.012338,0 0.024677,0 0.037015,0 0.00925,0 0.018633,-0.002 0.027761,0 0.00962,0.002 0.018508,0.006 0.027761,0.009 0.00925,0.003 0.019398,0.004 0.027761,0.009 0.00748,0.004 0.011527,0.0125 0.018508,0.0175 0.00552,0.004 0.012991,0.005 0.018509,0.009 0.00698,0.005 0.011527,0.0125 0.018508,0.0175 0.00552,0.004 0.012991,0.005 0.018508,0.009 0.00698,0.005 0.011527,0.0125 0.018508,0.0175 0.011036,0.008 0.025537,0.0103 0.037015,0.0175 0.00392,0.002 0.025847,0.0226 0.027761,0.0263 0.00139,0.003 -9.715e-4,0.006 0,0.009 0.00218,0.006 0.00758,0.0112 0.00925,0.0175 0.00183,0.006 0,0.0435 0,0.0526 0,0.009 0,0.0175 0,0.0263 0,0.009 0.00151,0.0176 0,0.0263 -0.0016,0.009 -0.00657,0.0174 -0.00925,0.0263 -0.03076,0.10195 0.017849,-0.0501 -0.018508,0.0876 -0.00473,0.018 -0.013776,0.0346 -0.018508,0.0526 -0.00455,0.0172 -0.00617,0.0351 -0.00925,0.0526 -0.00925,0.0205 -0.020333,0.0403 -0.027761,0.0614 -0.00497,0.0141 -0.00473,0.0295 -0.00925,0.0438 -0.00477,0.015 -0.013254,0.0289 -0.018508,0.0438 -0.00402,0.0115 -0.00424,0.024 -0.00925,0.0351 -0.00438,0.01 -0.014126,0.0166 -0.018509,0.0263 -0.00501,0.0111 -0.00424,0.024 -0.00925,0.0351 -0.00438,0.01 -0.012613,0.0173 -0.018508,0.0263 -0.00954,0.0145 -0.019149,0.0289 -0.027761,0.0438 -0.063265,0.10983 0.00877,-0.008 -0.055522,0.11392 -0.01112,0.0211 -0.025893,0.0402 -0.037014,0.0613 -0.036721,0.0695 -0.022647,0.046 -0.037014,0.11392 -0.00249,0.0118 -0.00716,0.0232 -0.00925,0.0351 -0.00102,0.006 0,0.0117 0,0.0175 0,0.006 -0.00275,0.0123 0,0.0175 0.00139,0.003 0.00707,-0.002 0.00925,0 0.00218,0.002 0.00308,0.009 0,0.009 -0.00308,0 -0.00218,-0.006 0,-0.009 0.00436,-0.004 0.01299,0.003 0.018508,0 0.04709,-0.0224 -0.042448,0.004 0.027761,-0.009 0.040235,-0.008 0.065074,-0.0353 0.092537,-0.0614 0.012338,-0.0117 0.026115,-0.0222 0.037015,-0.0351 0.014299,-0.0169 0.028246,-0.0419 0.037014,-0.0614 0.00384,-0.008 0.00541,-0.0178 0.00925,-0.0263 0.00544,-0.012 0.014543,-0.0225 0.018508,-0.0351 0.00539,-0.017 0.0047,-0.0353 0.00925,-0.0526 0.00473,-0.018 0.01412,-0.0346 0.018508,-0.0526 0.0049,-0.0201 0.00637,-0.0409 0.00925,-0.0614 0.00296,-0.021 0.017474,-0.13133 0.018508,-0.14895 0.00154,-0.0263 -0.00154,-0.0526 0,-0.0789 0.00155,-0.0264 0.00762,-0.0524 0.00925,-0.0789 0.00396,-0.0637 -9.323e-4,-0.0771 -0.00925,-0.1402 -0.00308,-0.0233 -0.00467,-0.047 -0.00925,-0.0701 -0.01245,-0.0629 -0.022476,-0.0801 -0.046269,-0.14019 -0.00925,-0.0233 -0.016539,-0.0476 -0.027761,-0.0701 -0.030415,-0.0612 -0.056913,-0.0916 -0.092537,-0.14896 -0.016102,-0.0258 -0.029017,-0.0537 -0.046269,-0.0789 -0.016757,-0.0245 -0.036254,-0.0473 -0.055522,-0.0701 -0.05196,-0.0615 -0.1103564,-0.11778 -0.1758213,-0.16648 -0.020864,-0.0155 -0.042023,-0.0309 -0.064776,-0.0438 -0.036144,-0.0206 -0.1204568,-0.0546 -0.1573139,-0.0701 -0.078288,-0.0329 -0.090676,-0.0421 -0.1758212,-0.0614 -0.033549,-0.007 -0.067773,-0.0122 -0.1017912,-0.0175 -0.1083601,-0.0172 -0.137866,-0.0246 -0.2498516,-0.0175 -0.056852,0.004 -0.2779687,0.0351 -0.3238813,0.0438 -0.065294,0.0124 -0.1294724,0.0295 -0.1943286,0.0438 -0.067783,0.0149 -0.1365524,0.0261 -0.2035826,0.0438 -0.065767,0.0174 -0.1295526,0.0409 -0.1943288,0.0614 -0.1602079,0.0506 -0.2193602,0.064 -0.3701501,0.13145 -0.1147404,0.0513 -0.2104221,0.10647 -0.3146276,0.17524 -0.050612,0.0334 -0.1007924,0.0676 -0.1480601,0.10515 -0.1405734,0.11163 -0.1438285,0.12852 -0.259105,0.26287 -0.1333751,0.15543 -0.1115941,0.11975 -0.2220901,0.28915 -0.088661,0.13593 -0.16424,0.26104 -0.1943288,0.42059 -0.00707,0.0375 -0.012343,0.0759 -0.00925,0.1139 0.00775,0.0954 0.034061,0.13539 0.092537,0.2103 0.028639,0.0368 0.057719,0.0736 0.092537,0.10515 0.079643,0.0721 0.1784241,0.12354 0.2776127,0.16648 0.073689,0.0319 0.2646745,0.0965 0.3423888,0.1139 0.074868,0.0168 0.2862649,0.0403 0.3608963,0.0438 0.058531,0.003 0.1172142,0 0.1758213,0 0.1191309,0 0.242137,0.003 0.3608964,-0.009 0.059023,-0.006 0.1174214,-0.0163 0.1758212,-0.0263 0.061924,-0.0106 0.1241332,-0.0202 0.1850751,-0.0351 0.1064049,-0.0258 0.24089,-0.0739 0.3423889,-0.1139 0.1076456,-0.0425 0.2233548,-0.0924 0.3238813,-0.14896 0.08742,-0.0492 0.1909609,-0.12158 0.2683589,-0.18401 0.041542,-0.0335 0.080199,-0.0701 0.1202987,-0.10515 0.040099,-0.0351 0.080199,-0.0701 0.1202988,-0.10515 0.040099,-0.0351 0.080931,-0.0694 0.1202987,-0.10515 0.071226,-0.0648 0.1479266,-0.13961 0.2128364,-0.2103 0.028767,-0.0313 0.055699,-0.0641 0.083284,-0.0964 0.060224,-0.0704 0.081384,-0.0918 0.1295525,-0.16648 0.056473,-0.0875 0.040676,-0.0707 0.083284,-0.16648 0.011788,-0.0265 0.025448,-0.0522 0.037015,-0.0789 0.010035,-0.0231 0.018508,-0.0468 0.027761,-0.0701 0.00925,-0.0233 0.019427,-0.0464 0.027761,-0.0701 0.025956,-0.0737 0.010823,-0.0403 0.027761,-0.0964 0.00268,-0.009 0.00689,-0.0173 0.00925,-0.0263 7.462e-4,-0.003 0,-0.006 0,-0.009 0,-0.003 0.00218,-0.006 0,-0.009 -0.00218,-0.002 -0.00617,0 -0.00925,0 -0.00308,0 -0.00617,0 -0.00925,0 -0.00308,0 -0.00707,-0.002 -0.00925,0 -4.53e-5,4e-5 7.13e-5,0.0259 0,0.0263 -0.00191,0.009 -0.00645,0.0174 -0.00925,0.0263 -0.00645,0.0203 -0.011808,0.041 -0.018508,0.0614 -0.032218,0.0976 -0.070314,0.19449 -0.111045,0.28916 -0.079552,0.18489 -0.029647,0.0649 -0.1295526,0.25411 -0.025917,0.0491 -0.049353,0.0993 -0.07403,0.14896 -0.024677,0.0496 -0.049282,0.0993 -0.07403,0.14896 -0.027691,0.0555 -0.056801,0.11042 -0.083284,0.16647 -0.025968,0.055 -0.04862,0.1113 -0.07403,0.16649 -0.027033,0.0588 -0.056089,0.11659 -0.083284,0.17525 -1.267e-4,2.7e-4 -0.166538,0.36795 -0.1665677,0.36801 -0.034467,0.0684 -0.074081,0.13432 -0.1110449,0.20153 -0.1079818,0.19632 -0.1397692,0.25978 -0.2591051,0.45564 -0.044941,0.0738 -0.092538,0.14604 -0.1388072,0.21906 -0.046269,0.073 -0.092302,0.14617 -0.1388062,0.21905 -0.042948,0.0673 -0.089217,0.13278 -0.1295526,0.20153 -0.036846,0.0628 -0.069172,0.12791 -0.1017912,0.19277 -0.029085,0.0579 -0.057607,0.11598 -0.083284,0.17525 -0.052801,0.12186 -0.074169,0.19129 -0.1110451,0.31544 -0.035813,0.12057 -0.040789,0.14022 -0.064776,0.26287 -0.024209,0.12378 -0.015792,0.0857 -0.027761,0.21029 -0.012017,0.12516 -0.00925,0.048 -0.00925,0.16649 0,0.0581 -0.00355,0.0593 0.00925,0.11391 0.00211,0.009 0.00424,0.0184 0.00925,0.0263 0.00449,0.007 0.012338,0.0116 0.018507,0.0175"
       id="path66"
       inkscape:connector-curvature="0" />
  </g>
</svg>
